<?xml version="1.0" encoding="utf-8"?>
<!-- Generator: Adobe Illustrator 18.1.0, SVG Export Plug-In . SVG Version: 6.00 Build 0)  -->
<!DOCTYPE svg PUBLIC "-//W3C//DTD SVG 1.1//EN" "http://www.w3.org/Graphics/SVG/1.1/DTD/svg11.dtd">
<svg version="1.1" xmlns="http://www.w3.org/2000/svg" xmlns:xlink="http://www.w3.org/1999/xlink" x="0px" y="0px"
	 viewBox="0 0 230.7 72.3" enable-background="new 0 0 230.7 72.3" xml:space="preserve">
<g id="Layer_2">
</g>
<g id="Layer_1">
	<text transform="matrix(1 0 0 1 45.881 49.7174)" fill="#FFFFFF" font-family="'BigJohn'" font-size="48.2296">ENSITY</text>
	<text transform="matrix(1 0 0 1 106.43 68.8955)" fill="#FFFFFF" font-family="'Calibri'" font-size="18.7617">BY ADI</text>
	<g>
		<path fill="#F9735E" d="M31,58.4c-2.1-2.2-4.3-4.3-6.5-6.5c5.2-5.4,8-11.9,8-19.5c0-7.6-2.8-14.1-8-19.5c2.2-2.2,4.3-4.3,6.5-6.5
			C45.5,20.4,45.3,44.7,31,58.4z"/>
		<path fill="#F9735E" d="M14.8,42c5.1-5.3,5.3-13.8,0-19.4c2.2-2.2,4.3-4.3,6.5-6.5c8.8,8.4,9.1,23.6,0.1,32.4
			C19.2,46.4,17,44.2,14.8,42z"/>
		<path fill="#F9735E" d="M11.5,38.9c-2.2-2.2-4.3-4.3-6.5-6.4c2.1-2.1,4.3-4.3,6.5-6.5C14.9,29,15.2,35.3,11.5,38.9z"/>
	</g>
</g>
</svg>
