<?xml version="1.0" encoding="utf-8"?>
<!-- Generator: Adobe Illustrator 18.1.0, SVG Export Plug-In . SVG Version: 6.00 Build 0)  -->
<!DOCTYPE svg PUBLIC "-//W3C//DTD SVG 1.1//EN" "http://www.w3.org/Graphics/SVG/1.1/DTD/svg11.dtd">
<svg version="1.1" id="Layer_1" xmlns="http://www.w3.org/2000/svg" xmlns:xlink="http://www.w3.org/1999/xlink" x="0px" y="0px"
	 viewBox="0 0 492.3 127.3" enable-background="new 0 0 492.3 127.3" xml:space="preserve">
<g>
	<g>
		<path fill="none" stroke="#000000" stroke-width="4" stroke-miterlimit="10" d="M37,72.5"/>
		<path fill="none" stroke="#000000" stroke-width="4" stroke-miterlimit="10" d="M46.2,87.9"/>
		<path fill="none" stroke="#000000" stroke-width="4" stroke-miterlimit="10" d="M46.2,41.7"/>
		<path fill="none" stroke="#000000" stroke-width="4" stroke-miterlimit="10" d="M37,57.1"/>
		<path fill="none" stroke="#000000" stroke-width="4" stroke-miterlimit="10" d="M37,57.1c2.7,1.5,4.6,4.4,4.6,7.7
			c0,3.3-1.8,6.2-4.6,7.7"/>
		<path fill="none" stroke="#000000" stroke-width="4" stroke-miterlimit="10" d="M46.2,41.7"/>
		<path fill="none" stroke="#000000" stroke-width="4" stroke-miterlimit="10" d="M55.3,103.3c13.6-7.7,22.8-22,22.8-38.5
			c0-16.5-9.2-30.8-22.8-38.5"/>
		<path fill="none" stroke="#000000" stroke-width="4" stroke-miterlimit="10" d="M46.2,87.9"/>
		<path fill="none" stroke="#000000" stroke-width="4" stroke-miterlimit="10" d="M46.2,87.9c8.2-4.6,13.7-13.2,13.7-23.1
			s-5.5-18.5-13.7-23.1"/>
	</g>
	<text transform="matrix(0.82 0 0 1 87.9118 89.359)"><tspan x="0" y="0" font-family="'HelveticaNeue-Light'" font-size="67.1759" letter-spacing="8.5">ENSITY</tspan><tspan x="279.2" y="0" font-family="'HelveticaNeue-Light'" font-size="26.1007" letter-spacing="2.4"> </tspan><tspan x="290.1" y="0" fill="#666666" font-family="'HelveticaNeue-Light'" font-size="45.2412" letter-spacing="6.1">by</tspan><tspan x="349.7" y="0" fill="#666666" font-family="'HelveticaNeue-Light'" font-size="26.1007" letter-spacing="2.4"> </tspan><tspan x="360.6" y="0" fill="#666666" font-family="'HelveticaNeue-Light'" font-size="45.2412" letter-spacing="6.1">AD</tspan><tspan x="432.7" y="0" fill="#666666" font-family="'HelveticaNeue-Light'" font-size="45.2412" letter-spacing="3.7">I</tspan></text>
</g>
<rect x="2" y="2" fill="none" stroke="#000000" stroke-width="4" stroke-miterlimit="10" width="488.3" height="123.3"/>
</svg>
