<?xml version="1.0" encoding="utf-8"?>
<!-- Generator: Adobe Illustrator 17.1.0, SVG Export Plug-In . SVG Version: 6.00 Build 0)  -->
<!DOCTYPE svg PUBLIC "-//W3C//DTD SVG 1.1//EN" "http://www.w3.org/Graphics/SVG/1.1/DTD/svg11.dtd">
<svg version="1.1" xmlns="http://www.w3.org/2000/svg" xmlns:xlink="http://www.w3.org/1999/xlink" x="0px" y="0px"
	 viewBox="0 0 230.7 72.3" enable-background="new 0 0 230.7 72.3" xml:space="preserve">
<g id="Layer_2">
</g>
<g id="Layer_1">
	<g>
		<path fill="#FFFFFF" d="M49.5,13.5H72v7.9H59v5.9h11.5v8H59V42h13v7.8H49.5V13.5z"/>
		<path fill="#FFFFFF" d="M105.4,49.7L88.3,32.6v17.1h-9.5V13.5h3.9l17.1,17.1V13.5h9.5v36.2H105.4z"/>
		<path fill="#FFFFFF" d="M129.9,24.6c0-1.5-1.3-2.7-2.7-2.7c-1.5,0-2.7,1.3-2.7,2.7s1.2,2.7,2.7,2.7c3.5,0,6.7,1.7,8.7,4.3
			c1.5,1.9,2.4,4.3,2.4,7c0,6.2-5,11.1-11.1,11.1c-6.2,0-11.1-4.9-11.1-11.2h8.4c0,1.5,1.2,2.7,2.7,2.7c1.5,0,2.7-1.2,2.7-2.7
			s-1.3-2.7-2.7-2.7c-6.2,0-11.1-4.9-11.1-11.1s4.9-11.1,11.1-11.1c6.2,0,11.1,4.9,11.1,11.1H129.9z"/>
		<path fill="#FFFFFF" d="M145,13.5h9.5v36.2H145V13.5z"/>
		<path fill="#FFFFFF" d="M161,13.5h28.5v9.5h-9.6v26.8h-9.5V22.9H161V13.5z"/>
		<path fill="#FFFFFF" d="M215.5,36.4v13.3h-9.4V36.4l-13.2-22.9h10.9l6.9,12.1l7-12.1h10.9L215.5,36.4z"/>
	</g>
	<g>
		<path fill="#FFFFFF" d="M115.8,65.5c0,0.4,0,0.7-0.1,1s-0.2,0.6-0.4,0.8s-0.4,0.5-0.6,0.7c-0.2,0.2-0.5,0.3-0.8,0.5
			c-0.3,0.1-0.6,0.2-1,0.3c-0.3,0.1-0.7,0.1-1.2,0.1h-3.1c-0.1,0-0.3,0-0.4-0.1s-0.2-0.3-0.2-0.5V57.7c0-0.2,0.1-0.4,0.2-0.5
			s0.3-0.1,0.4-0.1h2.7c0.7,0,1.3,0.1,1.7,0.2s0.8,0.3,1.1,0.6c0.3,0.3,0.5,0.6,0.7,0.9c0.2,0.4,0.2,0.8,0.2,1.3
			c0,0.3,0,0.5-0.1,0.8c-0.1,0.3-0.2,0.5-0.3,0.7c-0.1,0.2-0.3,0.4-0.5,0.6c-0.2,0.2-0.4,0.3-0.7,0.4c0.3,0.1,0.6,0.2,0.9,0.3
			c0.3,0.2,0.5,0.4,0.7,0.6c0.2,0.3,0.4,0.5,0.5,0.9C115.8,64.7,115.8,65.1,115.8,65.5z M113.4,60.2c0-0.3,0-0.5-0.1-0.8
			c-0.1-0.2-0.2-0.4-0.4-0.6c-0.2-0.2-0.4-0.3-0.7-0.4s-0.6-0.1-1.1-0.1h-1.6v3.8h1.8c0.4,0,0.7-0.1,1-0.2c0.2-0.1,0.5-0.3,0.6-0.4
			c0.2-0.2,0.3-0.4,0.4-0.6C113.4,60.7,113.4,60.4,113.4,60.2z M114.2,65.6c0-0.4-0.1-0.7-0.2-0.9c-0.1-0.3-0.3-0.5-0.5-0.7
			c-0.2-0.2-0.5-0.3-0.8-0.4c-0.3-0.1-0.7-0.1-1.2-0.1h-1.9v4.2h2.3c0.4,0,0.7,0,0.9-0.1c0.3-0.1,0.5-0.2,0.7-0.4s0.4-0.4,0.5-0.6
			C114.1,66.2,114.2,65.9,114.2,65.6z"/>
		<path fill="#FFFFFF" d="M121.5,64.3v4.4c0,0,0,0.1,0,0.1s-0.1,0.1-0.1,0.1c-0.1,0-0.1,0-0.2,0.1c-0.1,0-0.2,0-0.4,0
			c-0.2,0-0.3,0-0.4,0c-0.1,0-0.2,0-0.2-0.1c-0.1,0-0.1-0.1-0.1-0.1s0-0.1,0-0.1v-4.4l-3.4-6.7c-0.1-0.1-0.1-0.3-0.1-0.3
			c0-0.1,0-0.1,0-0.2c0,0,0.1-0.1,0.2-0.1c0.1,0,0.3,0,0.5,0c0.2,0,0.3,0,0.4,0c0.1,0,0.2,0,0.3,0.1c0.1,0,0.1,0.1,0.2,0.1
			c0,0,0.1,0.1,0.1,0.2l1.6,3.4c0.2,0.3,0.3,0.7,0.5,1c0.2,0.4,0.3,0.7,0.5,1.1h0c0.1-0.3,0.3-0.7,0.4-1c0.1-0.3,0.3-0.7,0.5-1
			l1.6-3.4c0-0.1,0-0.1,0.1-0.2c0,0,0.1-0.1,0.1-0.1c0.1,0,0.1,0,0.2-0.1c0.1,0,0.2,0,0.4,0c0.2,0,0.4,0,0.5,0c0.1,0,0.2,0,0.3,0.1
			c0,0,0.1,0.1,0,0.2c0,0.1-0.1,0.2-0.1,0.3L121.5,64.3z"/>
		<path fill="#FFFFFF" d="M139.9,68.3c0,0.1,0.1,0.2,0.1,0.3c0,0.1,0,0.1-0.1,0.2c0,0-0.1,0.1-0.2,0.1c-0.1,0-0.3,0-0.5,0
			s-0.3,0-0.5,0c-0.1,0-0.2,0-0.3,0c-0.1,0-0.1-0.1-0.1-0.1c0,0-0.1-0.1-0.1-0.1l-1-2.9h-4.9l-1,2.8c0,0.1,0,0.1-0.1,0.1
			c0,0-0.1,0.1-0.1,0.1c-0.1,0-0.1,0-0.2,0.1s-0.2,0-0.4,0c-0.2,0-0.3,0-0.4,0c-0.1,0-0.2,0-0.2-0.1c0,0-0.1-0.1-0.1-0.2
			s0-0.2,0.1-0.3l4-11c0-0.1,0.1-0.1,0.1-0.2c0,0,0.1-0.1,0.2-0.1s0.2,0,0.3-0.1s0.3,0,0.5,0c0.2,0,0.4,0,0.5,0c0.1,0,0.2,0,0.3,0.1
			c0.1,0,0.1,0.1,0.2,0.1s0.1,0.1,0.1,0.2L139.9,68.3z M134.8,58.6L134.8,58.6l-2.1,5.9h4.1L134.8,58.6z"/>
		<path fill="#FFFFFF" d="M151,62.8c0,1-0.1,1.9-0.4,2.7c-0.3,0.8-0.6,1.4-1.1,1.9s-1.1,0.9-1.9,1.1c-0.7,0.3-1.6,0.4-2.6,0.4h-2.5
			c-0.1,0-0.3,0-0.4-0.1s-0.2-0.3-0.2-0.5V57.7c0-0.2,0.1-0.4,0.2-0.5s0.3-0.1,0.4-0.1h2.7c1,0,1.9,0.1,2.6,0.4
			c0.7,0.3,1.3,0.6,1.8,1.1c0.5,0.5,0.8,1.1,1.1,1.8C150.9,61.1,151,61.9,151,62.8z M149.4,62.9c0-0.6-0.1-1.2-0.2-1.8
			c-0.2-0.6-0.4-1-0.7-1.4c-0.3-0.4-0.8-0.7-1.3-0.9c-0.5-0.2-1.2-0.3-2-0.3h-1.6v9.2h1.6c0.8,0,1.4-0.1,1.9-0.3s1-0.5,1.3-0.9
			c0.3-0.4,0.6-0.9,0.8-1.5S149.4,63.7,149.4,62.9z"/>
		<path fill="#FFFFFF" d="M155,68.7c0,0,0,0.1,0,0.1s-0.1,0.1-0.1,0.1c-0.1,0-0.1,0-0.2,0.1c-0.1,0-0.2,0-0.4,0c-0.1,0-0.3,0-0.4,0
			c-0.1,0-0.2,0-0.2-0.1c-0.1,0-0.1-0.1-0.1-0.1s0-0.1,0-0.1V57.3c0,0,0-0.1,0-0.1c0,0,0.1-0.1,0.1-0.1c0.1,0,0.1,0,0.2-0.1
			s0.2,0,0.4,0c0.2,0,0.3,0,0.4,0c0.1,0,0.2,0,0.2,0.1c0.1,0,0.1,0.1,0.1,0.1c0,0,0,0.1,0,0.1V68.7z"/>
	</g>
	<g>
		<path fill="#F9735E" d="M31,58.4c-2.1-2.2-4.3-4.3-6.5-6.5c5.2-5.4,8-11.9,8-19.5c0-7.6-2.8-14.1-8-19.5c2.2-2.2,4.3-4.3,6.5-6.5
			C45.5,20.4,45.3,44.7,31,58.4z"/>
		<path fill="#F9735E" d="M14.8,42c5.1-5.3,5.3-13.8,0-19.4c2.2-2.2,4.3-4.3,6.5-6.5c8.8,8.4,9.1,23.6,0.1,32.4
			C19.2,46.4,17,44.2,14.8,42z"/>
		<path fill="#F9735E" d="M11.5,38.9c-2.2-2.2-4.3-4.3-6.5-6.4c2.1-2.1,4.3-4.3,6.5-6.5C14.9,29,15.2,35.3,11.5,38.9z"/>
	</g>
</g>
</svg>
